<?xml version="1.0"?>
<svg xmlns="http://www.w3.org/2000/svg" xmlns:xlink="http://www.w3.org/1999/xlink" version="1.1" id="Capa_1" x="0px" y="0px" viewBox="0 0 512 512" style="enable-background:new 0 0 512 512;" xml:space="preserve" width="512px" height="512px" class=""><g><path style="fill:#5A5555;" d="M301.102,295.65v209.614c0,3.506-2.842,6.359-6.359,6.359h-23.309c-3.506,0-6.359-2.853-6.359-6.359  V295.65H301.102z" data-original="#5A5555" class=""/><path style="fill:#736E6E;" d="M301.102,295.65v209.614c0,3.506-2.842,6.359-6.359,6.359h-6.431c-3.517,0-6.359-2.853-6.359-6.359  V295.65H301.102z" data-original="#736E6E" class=""/><g>
	<path style="fill:#5A5555;" d="M263.136,295.65l-44.802,210.921c-0.622,2.946-3.216,5.052-6.224,5.052h-24.097   c-4.046,0-7.054-3.714-6.224-7.666l44.253-208.307H263.136z" data-original="#5A5555" class=""/>
	<path style="fill:#5A5555;" d="M378.176,511.623h-24.097c-3.008,0-5.602-2.106-6.224-5.052L303.042,295.65h37.095L384.4,503.957   C385.23,507.909,382.211,511.623,378.176,511.623z" data-original="#5A5555" class=""/>
</g><g>
	<path style="fill:#736E6E;" d="M263.136,295.65l-44.802,210.921c-0.622,2.946-3.216,5.052-6.224,5.052h-6.089   c-4.035,0-7.054-3.714-6.224-7.666l44.263-208.307H263.136z" data-original="#736E6E" class=""/>
	<path style="fill:#736E6E;" d="M378.176,511.623h-6.089c-3.008,0-5.602-2.106-6.224-5.052L321.06,295.65h19.077L384.4,503.957   C385.23,507.909,382.211,511.623,378.176,511.623z" data-original="#736E6E" class=""/>
</g><path style="fill:#5A5555;" d="M315.127,179.044v95.933c0,7.5-6.079,13.568-13.568,13.568H264.63c-7.5,0-13.568-6.068-13.568-13.568  v-95.933H315.127z" data-original="#5A5555" class=""/><path style="fill:#736E6E;" d="M315.127,179.044v95.933c0,7.5-6.079,13.568-13.568,13.568h-4.896c-7.5,0-13.568-6.068-13.568-13.568  v-95.933H315.127z" data-original="#736E6E" class=""/><polygon style="fill:#5A5555;" points="187.379,219.8 57.484,264.426 49.58,241.418 41.955,219.24 171.85,174.614 179.475,196.803   " data-original="#5A5555" class=""/><polygon style="fill:#736E6E;" points="187.379,219.8 57.484,264.426 49.58,241.418 179.475,196.803 " data-original="#736E6E" class=""/><path style="fill:#5A5555;" d="M496.816,159.179c-9.668,13.703-23.589,24.595-40.653,30.456L402.439,33.257  c31.628-10.861,65.331-1.442,86.918,21.348c7.894,8.319,14.17,18.423,18.133,29.979  C516.463,110.694,511.608,138.224,496.816,159.179z" data-original="#5A5555" class=""/><path style="fill:#736E6E;" d="M496.816,159.179l-29.315-85.353c-2.91-8.471,2.718-17.462,11.605-18.579  c3.428-0.43,6.852-0.642,10.252-0.642c7.894,8.319,14.17,18.423,18.133,29.979C516.463,110.694,511.608,138.224,496.816,159.179z" data-original="#736E6E" class=""/><path style="fill:#9B0ACC" d="M73.957,297.559l-23.558,8.091c-8.537,2.936-17.832-1.608-20.767-10.145L0.887,211.834  c-2.925-8.537,1.618-17.832,10.155-20.767l14.616-5.021l8.942-3.071c8.537-2.936,17.832,1.608,20.767,10.145l23.122,67.344  l5.612,16.328C87.038,285.329,82.494,294.623,73.957,297.559z" data-original="#F44545" class="" data-old_color="#BF00FF"/><path style="fill:#BF00FF" d="M78.49,260.464l-8.942,3.071c-8.537,2.936-17.832-1.608-20.767-10.145l-23.122-67.344l8.942-3.071  c8.537-2.936,17.832,1.608,20.767,10.145L78.49,260.464z" data-original="#FB5858" class="" data-old_color="#C600FF"/><path style="fill:#9B0ACC" d="M462.449,177.519l-320.847,76.68c-2.044,0.488-4.118-0.654-4.803-2.635l-24.045-69.999  c-0.674-1.981,0.259-4.149,2.158-5.021l19.979-9.17L414.856,38.952l36.244,105.538L462.449,177.519z" data-original="#F44545" class="" data-old_color="#BF00FF"/><path style="fill:#BF00FF" d="M451.101,144.49l-295.889,70.725c-2.044,0.488-4.118-0.654-4.792-2.635l-15.529-45.207  L414.856,38.952L451.101,144.49z" data-original="#FB5858" class="" data-old_color="#C600FF"/><path style="fill:#69018C" d="M472.553,217.363L428.31,232.56c-8.911,3.06-18.61-1.68-21.67-10.581L343.508,38.163  c-3.06-8.9,1.68-18.599,10.581-21.66l20.228-6.95l24.025-8.247c8.9-3.06,18.599,1.68,21.66,10.581l59.387,172.892l3.755,10.923  C486.204,204.603,481.463,214.302,472.553,217.363z" data-original="#D63030" class="active-path" data-old_color="#BF00FF"/><path style="fill:#9B0ACC" d="M479.389,184.78l-24.025,8.257c-8.911,3.06-18.61-1.68-21.66-10.591L374.317,9.554l24.025-8.247  c8.9-3.06,18.599,1.68,21.66,10.581L479.389,184.78z" data-original="#F44545" class="" data-old_color="#BF00FF"/><path style="fill:#69018C" d="M352.191,291.314c0,4.958-2.002,9.44-5.249,12.687c-3.247,3.247-7.728,5.249-12.687,5.249H231.933  c-9.907,0-17.946-8.029-17.946-17.936c0-4.958,2.012-9.44,5.259-12.687s7.728-5.249,12.687-5.249h102.323  C344.162,273.379,352.191,281.408,352.191,291.314z" data-original="#D63030" class="active-path" data-old_color="#BF00FF"/><path style="fill:#9B0ACC" d="M352.191,291.314h-94.677c-9.907,0-17.936-8.029-17.936-17.936h94.677  C344.162,273.379,352.191,281.408,352.191,291.314z" data-original="#F44545" class="" data-old_color="#BF00FF"/></g> </svg>
