<?xml version="1.0"?>
<svg xmlns="http://www.w3.org/2000/svg" xmlns:xlink="http://www.w3.org/1999/xlink" version="1.1" id="Capa_1" x="0px" y="0px" viewBox="0 0 511.999 511.999" style="enable-background:new 0 0 511.999 511.999;" xml:space="preserve" width="512px" height="512px" class=""><g><path style="fill:#020202" d="M467.103,213.047h-30.007c0-42.91-21.595-83.373-60.808-113.937  C341.654,72.115,295.562,55.345,256,55.345s-85.654,16.77-120.288,43.765c-39.213,30.564-60.808,71.027-60.808,113.937H44.897  c0-52.362,25.701-101.23,72.369-137.604c40.253-31.374,92.117-50.105,138.736-50.105s98.482,18.731,138.736,50.105  C441.402,111.817,467.103,160.686,467.103,213.047z" data-original="#666666" class="" data-old_color="#666666"/><path style="fill:#020202" d="M467.103,213.047h-30.007c0-42.91-21.595-83.373-60.808-113.937  C341.654,72.115,295.562,55.345,256,55.345V25.338c46.619,0,98.482,18.731,138.736,50.105  C441.402,111.817,467.103,160.686,467.103,213.047z" data-original="#4D4D4D" class="" data-old_color="#4D4D4D"/><path style="fill:#FF8800" d="M120.166,389.957H70.522c-23.657,0-44.996-13.11-55.688-34.215  c-19.779-39.04-19.779-85.655,0-124.695c10.691-21.104,32.03-34.214,55.688-34.214h45.729L120.166,389.957z" data-original="#FF79E4" class="" data-old_color="#ff8800"/><path style="fill:#FF8800" d="M441.477,389.957h-49.644l3.919-193.123h45.725c23.657,0,44.996,13.11,55.688,34.215l0,0  c19.779,39.04,19.779,85.656,0,124.695C486.474,376.847,465.136,389.957,441.477,389.957z" data-original="#F745CF" class="" data-old_color="#ff8800"/><path style="fill:#FCC364" d="M84.431,262.817c0-94.755,76.815-171.569,171.569-171.569l0,0  c94.755,0,171.569,76.815,171.569,171.569v52.276c0,94.755-76.815,171.569-171.569,171.569l0,0  c-94.755,0-171.569-76.815-171.569-171.569L84.431,262.817L84.431,262.817z" data-original="#FFD69D" class="active-path" data-old_color="#FDC375"/><path style="fill:#FCC364" d="M256,91.247L256,91.247c94.756,0,171.569,76.815,171.569,171.569v52.276  c0,94.755-76.815,171.569-171.569,171.569l0,0C256,416.285,256,138.688,256,91.247z" data-original="#FFC16B" class="" data-old_color="#FCC365"/><path style="fill:#020202" d="M416.598,234.433c-20.298-21.676-51.019-21.676-65.784-21.676H161.186l0,0h-0.001  c-14.763,0-45.484,0-65.783,21.676c-13.031,13.915-18.8,33.734-17.147,58.904c1.355,20.626,8.845,38.249,21.659,50.965  c13.204,13.103,31.056,20.029,51.625,20.029c21.179,0,42.707-10.543,60.618-29.687c14.891-15.916,25.72-36.276,30.038-55.23  c3.193-4.393,8.325-7.063,13.804-7.063c5.479,0,10.611,2.67,13.804,7.063c4.318,18.952,15.146,39.313,30.037,55.229  c17.912,19.144,39.44,29.688,60.619,29.688c20.569,0,38.421-6.926,51.625-20.029c12.815-12.716,20.304-30.339,21.659-50.965  C435.398,268.167,429.629,248.348,416.598,234.433z M307.048,293.54c-1.601-2.974-3.026-5.979-4.25-8.963h101.206  c0.013,2.181-0.048,4.439-0.203,6.794c-0.048,0.732-0.112,1.453-0.181,2.169H307.048z M262.248,242.764h10.041  c-0.376,0.69-0.728,1.402-1.064,2.127C268.328,243.896,265.322,243.179,262.248,242.764z M240.775,244.891  c-0.336-0.725-0.688-1.437-1.064-2.127h10.041C246.678,243.179,243.672,243.896,240.775,244.891z M108.379,293.54  c-0.069-0.716-0.133-1.437-0.181-2.169c-0.155-2.356-0.216-4.614-0.203-6.794h101.206c-1.224,2.985-2.649,5.989-4.25,8.963H108.379z   M350.816,242.764c11.23,0,32.022,0.008,43.509,11.806h-93.686c2.557-2.574,6.821-4.852,12.79-6.806  C327.214,243.251,344.166,242.764,350.816,242.764z M161.186,242.764c6.648,0,23.599,0.487,37.386,5  c5.969,1.953,10.233,4.232,12.79,6.806h-93.685C129.162,242.772,149.955,242.764,161.186,242.764z M121.67,323.546h58.172  c-9.299,7.006-19.051,10.776-28.302,10.776C139.216,334.324,129.064,330.525,121.67,323.546z M332.157,323.546h58.172  c-7.394,6.979-17.546,10.776-29.87,10.776C351.209,334.324,341.457,330.553,332.157,323.546z" data-original="#4BDED3" class="" data-old_color="#4BDED3"/><path style="fill:#020202" d="M416.598,234.433c-20.298-21.676-51.019-21.676-65.784-21.676H256v59.595  c5.479,0,10.611,2.67,13.804,7.063c4.318,18.952,15.146,39.313,30.037,55.229c17.912,19.144,39.44,29.688,60.619,29.688  c20.569,0,38.421-6.926,51.625-20.029c12.815-12.716,20.304-30.339,21.659-50.965C435.398,268.167,429.629,248.348,416.598,234.433z   M271.225,244.891c-2.899-0.995-5.903-1.712-8.977-2.127h10.041C271.914,243.454,271.562,244.166,271.225,244.891z M313.428,247.764  c13.786-4.513,30.737-5,37.387-5c11.23,0,32.022,0.008,43.509,11.806h-93.685C303.195,251.996,307.459,249.718,313.428,247.764z   M360.46,334.324c-9.251,0-19.003-3.771-28.303-10.776h58.172C382.936,330.525,372.784,334.324,360.46,334.324z M403.802,291.37  c-0.048,0.732-0.112,1.453-0.181,2.169h-96.572c-1.601-2.974-3.026-5.979-4.25-8.963h101.206  C404.017,286.757,403.956,289.015,403.802,291.37z" data-original="#02C7B2" class="" data-old_color="#030303"/></g> </svg>
