<?xml version="1.0"?>
<svg xmlns="http://www.w3.org/2000/svg" xmlns:xlink="http://www.w3.org/1999/xlink" version="1.1" id="Layer_1" x="0px" y="0px" viewBox="0 0 210 210" style="enable-background:new 0 0 210 210;" xml:space="preserve" width="512px" height="512px"><g><g id="XMLID_86_">
	<path id="XMLID_87_" d="M115,0H95c-8.284,0-15,6.716-15,15v20c0,8.284,6.716,15,15,15h20c8.284,0,15-6.716,15-15V15   C130,6.716,123.284,0,115,0z" data-original="#000000" class="active-path" data-old_color="#88E968" fill="#89EA69"/>
	<path id="XMLID_88_" d="M115,80H95c-8.284,0-15,6.716-15,15v20c0,8.284,6.716,15,15,15h20c8.284,0,15-6.716,15-15V95   C130,86.716,123.284,80,115,80z" data-original="#000000" class="active-path" data-old_color="#88E968" fill="#89EA69"/>
	<path id="XMLID_89_" d="M115,160H95c-8.284,0-15,6.716-15,15v20c0,8.284,6.716,15,15,15h20c8.284,0,15-6.716,15-15v-20   C130,166.716,123.284,160,115,160z" data-original="#000000" class="active-path" data-old_color="#88E968" fill="#89EA69"/>
</g></g> </svg>
