<?xml version="1.0"?>
<svg xmlns="http://www.w3.org/2000/svg" xmlns:xlink="http://www.w3.org/1999/xlink" version="1.1" id="Capa_1" x="0px" y="0px" viewBox="0 0 512 512" style="enable-background:new 0 0 512 512;" xml:space="preserve" width="512px" height="512px" class=""><g><path style="fill:#662D91" d="M497,128.533H15c-8.284,0-15,6.716-15,15V497c0,8.284,6.716,15,15,15h482c8.284,0,15-6.716,15-15  V143.533C512,135.249,505.284,128.533,497,128.533z" data-original="#FF598B" class="" data-old_color="#662d91"/><path style="fill:#532476" d="M497,128.533H256.001V512H497c8.284,0,15-6.716,15-15V143.533  C512,135.249,505.284,128.533,497,128.533z" data-original="#E6293F" class="" data-old_color="#662D91"/><path style="fill:#FFFFFF" d="M340.637,307.787l-120.5-80.334c-4.602-3.069-10.521-3.354-15.398-0.745  c-4.877,2.61-7.922,7.693-7.922,13.226v160.667c0,5.532,3.045,10.615,7.922,13.226c2.218,1.186,4.65,1.774,7.077,1.774  c2.91,0,5.812-0.846,8.321-2.52l120.5-80.333c4.173-2.781,6.68-7.465,6.68-12.48S344.81,310.569,340.637,307.787z" data-original="#C7EFFF" class="active-path" data-old_color="#F5F8F8"/><g>
	<path style="fill:#662D91" d="M63.201,94.268h385.6c8.284,0,15-6.716,15-15s-6.716-15-15-15h-385.6c-8.284,0-15,6.716-15,15   S54.917,94.268,63.201,94.268z" data-original="#FF598B" class="" data-old_color="#662d91"/>
	<path style="fill:#662D91" d="M111.4,30h289.2c8.284,0,15-6.716,15-15s-6.716-15-15-15H111.4c-8.284,0-15,6.716-15,15   S103.116,30,111.4,30z" data-original="#FF598B" class="" data-old_color="#662d91"/>
</g><path style="fill:#FFFFFF" d="M340.637,307.787l-84.636-56.425v137.81l84.636-56.424c4.173-2.781,6.68-7.465,6.68-12.48  S344.81,310.569,340.637,307.787z" data-original="#91E1FF" class="" data-old_color="#999999"/><g>
	<path style="fill:#532476" d="M463.801,79.268c0-8.284-6.716-15-15-15h-192.8v30h192.8   C457.085,94.268,463.801,87.552,463.801,79.268z" data-original="#E6293F" class="" data-old_color="#662D91"/>
	<path style="fill:#532476" d="M415.6,15c0-8.284-6.716-15-15-15H256.001v30H400.6C408.884,30,415.6,23.284,415.6,15z" data-original="#E6293F" class="" data-old_color="#662D91"/>
</g></g> </svg>
